<?xml version="1.0" standalone="no"?>
<!DOCTYPE svg PUBLIC "-//W3C//DTD SVG 20010904//EN"
 "http://www.w3.org/TR/2001/REC-SVG-20010904/DTD/svg10.dtd">
<svg version="1.0" xmlns="http://www.w3.org/2000/svg"
 width="1556.000000pt" height="2000.000000pt" viewBox="0 0 1556.000000 2000.000000"
 preserveAspectRatio="xMidYMid meet">

<g transform="translate(0.000000,2000.000000) scale(0.100000,-0.100000)"
fill="#000000" stroke="none">
<path d="M7727 16007 c-86 -136 -238 -280 -385 -365 -92 -54 -236 -110 -346
-135 -88 -20 -127 -21 -1171 -26 l-1080 -7 -88 -27 c-184 -57 -313 -133 -434
-255 -95 -96 -153 -178 -207 -293 -58 -122 -87 -238 -94 -372 -3 -68 -10 -113
-18 -121 -8 -8 -56 -15 -131 -19 -126 -7 -192 -21 -309 -67 -268 -107 -489
-340 -585 -618 -44 -127 -49 -193 -49 -626 0 -455 -7 -534 -59 -697 -90 -280
-280 -512 -539 -660 l-93 -52 69 -36 c258 -137 459 -372 556 -653 56 -165 58
-178 66 -698 6 -445 9 -492 28 -565 78 -299 262 -529 532 -665 127 -64 246
-95 407 -106 54 -4 104 -11 111 -17 7 -6 12 -36 12 -82 0 -248 105 -499 285
-680 140 -140 282 -224 472 -278 77 -21 89 -21 1153 -27 l1075 -6 106 -26
c303 -75 568 -259 722 -505 22 -35 41 -63 43 -63 2 0 23 30 47 68 115 175 269
310 465 407 101 50 150 67 275 97 91 22 103 22 1167 28 l1075 6 80 23 c436
124 722 480 753 935 l7 111 95 7 c120 9 194 23 294 54 292 93 536 334 637 630
52 153 59 235 59 680 0 314 3 421 15 490 62 357 276 655 603 836 l62 35 -102
61 c-304 180 -502 468 -563 819 -12 66 -15 174 -15 467 0 505 -13 608 -99 792
-160 341 -480 560 -846 581 -60 3 -117 9 -126 14 -12 6 -17 31 -22 108 -19
284 -123 511 -316 694 -133 125 -275 204 -456 254 -53 15 -177 18 -1135 23
-973 5 -1083 8 -1158 23 -300 64 -574 247 -737 492 -31 47 -58 85 -59 85 -1 0
-23 -33 -49 -73z m-3916 -3581 c275 -59 433 -348 375 -686 -39 -229 -178 -390
-374 -431 -55 -11 -78 -11 -400 7 l-113 7 39 17 c61 27 62 38 61 531 0 479 -2
494 -56 519 -18 8 -33 18 -33 23 0 4 44 7 98 8 53 1 124 5 157 9 98 12 176 11
246 -4z m5554 4 c39 -6 94 -17 123 -25 l52 -16 -1 -77 c0 -75 0 -76 -17 -52
-40 61 -108 118 -167 140 -135 50 -326 5 -395 -94 -51 -75 -57 -158 -15 -222
27 -42 114 -89 250 -138 186 -67 244 -92 297 -131 134 -98 152 -261 44 -382
-148 -164 -439 -179 -651 -33 l-45 31 0 77 1 77 27 -35 c146 -188 314 -264
479 -215 142 42 223 173 179 289 -33 85 -119 140 -346 221 -251 90 -342 170
-342 304 -2 205 222 324 527 281z m-4025 -520 c6 -562 3 -544 73 -574 29 -13
19 -14 -123 -15 -153 0 -155 0 -120 17 66 32 65 27 65 532 0 419 -1 458 -18
488 -12 22 -28 35 -47 39 -63 12 -26 24 68 21 l97 -3 5 -505z m4560 349 l0
-162 43 6 c23 3 83 9 132 13 156 11 261 -30 309 -122 19 -36 21 -61 26 -309 6
-300 11 -322 73 -349 29 -13 19 -14 -123 -15 -148 0 -153 1 -118 15 60 25 63
43 63 349 l0 270 -28 48 c-42 72 -88 92 -207 92 -52 -1 -112 -7 -133 -14 l-38
-13 3 -326 c3 -363 5 -373 68 -404 35 -17 33 -17 -120 -17 -142 1 -152 2 -123
15 70 30 68 16 68 529 0 511 0 511 -62 530 -58 16 -35 25 67 25 l100 0 0 -161z
m-5039 -168 c165 -62 228 -231 133 -358 -59 -78 -199 -84 -350 -15 -92 43
-147 52 -185 32 -22 -12 -23 -10 -8 24 14 29 65 56 106 56 40 -1 97 -29 177
-89 38 -28 78 -52 90 -52 92 -5 133 55 124 183 -10 128 -92 214 -217 225 -158
15 -258 -75 -296 -266 -36 -178 14 -348 129 -436 133 -101 364 -55 441 89 18
34 35 47 35 28 0 -19 -64 -104 -100 -132 -76 -60 -124 -75 -240 -75 -125 0
-171 17 -250 91 -186 174 -156 546 54 669 98 57 244 68 357 26z m2004 -2 c64
-24 125 -75 125 -106 0 -28 -29 -64 -65 -79 -18 -7 -83 -25 -145 -39 -245 -55
-328 -129 -338 -302 -4 -70 -1 -88 18 -127 33 -69 70 -91 155 -91 61 0 76 4
112 29 94 63 147 195 148 363 0 99 1 103 22 103 73 0 84 -32 90 -259 3 -102
10 -194 15 -204 5 -10 24 -27 41 -37 l32 -20 -57 0 c-102 0 -136 52 -138 210
l0 65 -24 -67 c-30 -86 -58 -129 -109 -173 -51 -44 -103 -59 -190 -52 -80 5
-133 36 -181 104 -25 36 -30 54 -34 122 -4 72 -2 86 22 135 46 95 113 135 312
192 178 50 214 71 214 129 0 73 -71 115 -195 115 -126 0 -195 -42 -195 -117 0
-22 7 -37 20 -45 29 -18 25 -45 -9 -63 -36 -18 -71 -8 -95 27 -35 50 -9 126
58 167 86 54 275 64 391 20z m763 16 c118 -28 172 -67 172 -126 0 -54 -31 -72
-197 -112 -164 -41 -226 -70 -280 -131 -70 -79 -89 -222 -42 -307 34 -60 68
-82 137 -87 154 -11 260 134 278 379 5 60 3 88 -5 93 -21 13 -11 26 22 26 35
0 44 -5 67 -34 12 -15 16 -62 20 -215 6 -214 11 -232 63 -255 l32 -14 -53 -1
c-107 -2 -142 46 -143 197 l0 87 -18 -55 c-39 -122 -90 -191 -166 -226 -92
-43 -207 -29 -277 34 -56 51 -81 110 -80 192 0 76 16 122 61 173 57 64 93 80
360 157 114 33 152 81 116 149 -47 91 -297 98 -359 10 -26 -37 -19 -109 10
-109 33 0 5 -52 -36 -65 -21 -7 -58 10 -77 34 -23 30 -16 96 14 132 64 75 234
108 381 74z m889 -15 c59 -26 79 -44 106 -95 20 -37 22 -60 27 -310 6 -300 9
-317 70 -347 35 -17 33 -17 -120 -17 -142 1 -152 2 -123 15 65 28 68 41 71
316 4 292 -3 333 -67 391 -22 20 -59 41 -83 48 -49 13 -176 7 -226 -11 l-33
-12 3 -332 c3 -368 4 -371 71 -400 29 -13 19 -14 -123 -15 -153 0 -155 0 -120
17 63 31 65 43 65 372 0 265 -2 298 -18 328 -12 22 -28 35 -47 39 -64 12 -25
23 88 24 64 1 144 5 177 9 98 14 227 4 282 -20z m2558 15 c178 -46 283 -209
273 -427 -3 -78 -9 -104 -35 -160 -40 -85 -97 -147 -170 -184 -54 -27 -66 -29
-168 -29 -100 0 -115 3 -166 28 -72 35 -132 100 -171 184 -41 86 -50 219 -23
319 57 210 250 323 460 269z m964 -15 c60 -26 124 -92 154 -158 29 -66 36
-217 12 -298 -24 -84 -61 -148 -115 -198 -95 -89 -198 -122 -352 -113 l-100 5
4 -192 c3 -213 11 -241 68 -253 66 -13 11 -23 -126 -23 -134 0 -183 10 -115
23 20 4 34 17 47 44 18 36 19 68 19 553 0 464 -2 519 -17 553 -13 28 -25 39
-48 43 -63 13 -27 25 68 22 l97 -3 3 -57 3 -58 30 35 c88 100 238 130 368 75z
m-6406 1 c13 -5 32 -22 42 -37 9 -15 55 -151 102 -302 46 -151 92 -291 103
-312 18 -35 46 -57 58 -46 6 7 118 365 142 455 40 151 17 231 -66 231 -13 0
-24 5 -24 10 0 6 53 10 140 10 87 0 140 -4 140 -10 0 -5 -10 -10 -23 -10 -29
0 -68 -40 -100 -105 -19 -38 -144 -424 -213 -657 -8 -28 -49 -22 -88 13 -50
43 -74 101 -161 389 -43 140 -86 272 -96 292 -23 44 -54 68 -91 68 -16 0 -28
5 -28 10 0 13 130 13 163 1z"/>
<path d="M3600 12413 c-14 -2 -42 -9 -62 -14 l-38 -10 0 -523 0 -524 68 -12
c99 -18 225 -9 287 21 102 48 182 159 222 309 25 91 24 329 -1 420 -45 164
-143 283 -263 320 -61 19 -148 24 -213 13z"/>
<path d="M10875 12081 c-163 -74 -231 -355 -143 -590 46 -123 170 -197 287
-173 104 22 175 92 211 209 71 232 -4 492 -162 558 -51 21 -143 19 -193 -4z"/>
<path d="M11761 12063 c-42 -22 -60 -39 -85 -83 l-31 -55 -3 -281 -3 -280 25
-12 c54 -24 121 -25 195 -3 95 29 167 94 218 199 l38 76 0 130 c0 113 -3 138
-22 177 -42 92 -121 147 -222 156 -48 4 -64 1 -110 -24z"/>
</g>
</svg>
