<?xml version="1.0" standalone="no"?>
<!DOCTYPE svg PUBLIC "-//W3C//DTD SVG 20010904//EN"
 "http://www.w3.org/TR/2001/REC-SVG-20010904/DTD/svg10.dtd">
<svg version="1.0" xmlns="http://www.w3.org/2000/svg"
 width="150.000000pt" height="150.000000pt" viewBox="0 0 150.000000 150.000000"
 preserveAspectRatio="xMidYMid meet">

<g transform="translate(0.000000,150.000000) scale(0.100000,-0.100000)"
fill="#000000" stroke="none">
<path d="M916 1398 c3 -5 10 -6 15 -3 13 9 11 12 -6 12 -8 0 -12 -4 -9 -9z"/>
<path d="M428 1343 c6 -2 18 -2 25 0 6 3 1 5 -13 5 -14 0 -19 -2 -12 -5z"/>
<path d="M595 1321 c-84 -25 -105 -35 -166 -74 -65 -42 -145 -124 -187 -192
-108 -175 -109 -425 -2 -605 197 -333 661 -391 931 -117 270 274 210 732 -121
927 -129 77 -317 102 -455 61z m336 -23 c90 -33 154 -72 218 -132 68 -65 112
-132 147 -226 24 -66 28 -89 28 -190 0 -105 -2 -122 -31 -197 -38 -99 -72
-150 -149 -224 -117 -110 -231 -154 -399 -153 -93 0 -121 4 -183 27 -94 34
-133 58 -206 127 -73 69 -116 134 -152 230 -23 64 -27 91 -28 185 -1 90 3 122
22 176 71 207 236 354 447 399 70 16 213 4 286 -22z"/>
<path d="M731 1151 c-8 -5 -10 -14 -6 -22 6 -9 10 -8 16 7 7 17 8 17 8 2 1
-10 4 -18 9 -19 4 0 15 -2 25 -4 23 -4 22 7 -3 28 -23 19 -29 20 -49 8z"/>
<path d="M351 739 c-36 -22 -37 -38 -1 -19 12 6 23 10 25 8 2 -2 -1 -23 -6
-47 -15 -67 -2 -61 17 8 10 33 23 61 30 61 31 0 44 -13 44 -45 0 -50 -16 -84
-58 -123 -20 -20 -27 -30 -16 -24 60 32 107 130 86 177 -9 20 -19 25 -49 25
-21 0 -53 -9 -72 -21z"/>
<path d="M904 735 c-27 -13 -67 -44 -89 -67 -22 -23 -32 -36 -22 -29 15 12 17
11 17 -5 0 -13 8 -19 25 -20 l25 -2 -22 17 c-16 14 -19 21 -10 37 22 41 172
95 172 62 0 -8 -7 -23 -15 -34 -18 -24 -19 -35 -1 -28 11 4 12 -3 5 -38 -12
-63 -10 -67 12 -25 24 45 43 49 37 7 -3 -16 -1 -30 4 -30 4 0 8 16 8 35 0 37
-15 46 -39 23 -10 -11 -11 -7 -5 17 4 17 10 39 14 51 21 55 -35 69 -116 29z"/>
<path d="M557 735 c-3 -11 -8 -40 -11 -65 -5 -44 -5 -44 9 10 13 51 15 100 2
55z"/>
<path d="M635 645 c-14 -13 -25 -32 -24 -42 0 -14 2 -15 6 -3 3 8 17 27 31 43
32 34 20 36 -13 2z"/>
<path d="M705 645 c-14 -13 -25 -32 -24 -42 0 -14 2 -15 6 -3 3 8 17 27 31 43
32 34 20 36 -13 2z"/>
<path d="M1082 658 c-18 -18 -15 -33 3 -18 23 19 31 4 17 -33 -10 -29 -10 -30
3 -13 15 19 15 19 16 -5 1 -21 2 -21 10 7 5 17 18 39 29 49 20 18 20 18 21 -6
0 -13 3 -18 6 -11 3 7 2 20 -1 28 -5 14 -9 14 -23 3 -9 -8 -19 -13 -22 -11 -3
2 -9 -7 -13 -20 -6 -22 -6 -22 -7 -2 -1 29 -24 47 -39 32z"/>
<path d="M560 626 c0 -38 14 -55 24 -30 8 21 8 26 -3 20 -4 -3 -6 6 -3 19 2
15 0 25 -7 25 -6 0 -11 -15 -11 -34z"/>
<path d="M499 641 c12 -8 9 -11 -13 -17 -27 -7 -34 -35 -8 -40 7 -1 8 0 2 3
-17 8 -11 19 15 31 29 13 33 32 8 32 -15 0 -16 -2 -4 -9z"/>
<path d="M736 635 c-3 -9 -6 -22 -5 -28 0 -7 5 -1 10 12 5 13 8 26 5 28 -2 2
-6 -3 -10 -12z"/>
<path d="M761 638 c-1 -9 -4 -23 -7 -32 -3 -9 -2 -16 4 -16 15 0 20 22 11 45
-6 16 -8 16 -8 3z"/>
<path d="M663 625 c-3 -9 -3 -18 -1 -21 3 -3 8 4 11 16 6 23 -1 27 -10 5z"/>
<path d="M1060 606 c0 -8 4 -17 9 -20 5 -4 7 3 4 14 -6 23 -13 26 -13 6z"/>
<path d="M919 588 c7 -9 9 -23 5 -30 -6 -10 -4 -11 7 0 11 10 10 15 -6 30 -17
15 -18 15 -6 0z"/>
<path d="M1171 1244 c0 -11 3 -14 6 -6 3 7 2 16 -1 19 -3 4 -6 -2 -5 -13z"/>
<path d="M288 1223 c7 -3 16 -2 19 1 4 3 -2 6 -13 5 -11 0 -14 -3 -6 -6z"/>
<path d="M248 1173 c7 -3 16 -2 19 1 4 3 -2 6 -13 5 -11 0 -14 -3 -6 -6z"/>
<path d="M1395 581 c-3 -5 -2 -12 3 -15 5 -3 9 1 9 9 0 17 -3 19 -12 6z"/>
<path d="M152 440 c0 -14 2 -19 5 -12 2 6 2 18 0 25 -3 6 -5 1 -5 -13z"/>
<path d="M1238 323 c7 -3 16 -2 19 1 4 3 -2 6 -13 5 -11 0 -14 -3 -6 -6z"/>
<path d="M272 290 c0 -14 2 -19 5 -12 2 6 2 18 0 25 -3 6 -5 1 -5 -13z"/>
<path d="M1198 273 c6 -2 18 -2 25 0 6 3 1 5 -13 5 -14 0 -19 -2 -12 -5z"/>
</g>
</svg>
