<?xml version="1.0" standalone="no"?>
<!DOCTYPE svg PUBLIC "-//W3C//DTD SVG 20010904//EN"
 "http://www.w3.org/TR/2001/REC-SVG-20010904/DTD/svg10.dtd">
<svg version="1.0" xmlns="http://www.w3.org/2000/svg"
 width="500.000000pt" height="500.000000pt" viewBox="0 0 500.000000 500.000000"
 preserveAspectRatio="xMidYMid meet">

<g transform="translate(0.000000,500.000000) scale(0.100000,-0.100000)"
fill="#000000" stroke="none">
<path d="M905 2631 c-116 -30 -186 -134 -119 -178 23 -15 29 -15 52 -2 33 18
38 35 12 42 -24 6 -26 34 -4 65 50 72 211 69 275 -4 67 -76 88 -225 47 -323
-32 -75 -81 -113 -155 -119 -69 -6 -115 15 -137 63 -31 65 -12 135 45 166 20
10 20 8 17 -88 l-3 -98 41 20 c33 16 40 23 33 37 -5 9 -9 44 -9 77 0 66 8 73
48 45 22 -15 32 -74 12 -74 -18 0 -10 -19 11 -25 31 -10 64 25 55 59 -8 34
-37 58 -84 72 l-37 11 -3 96 -3 96 -32 -15 -32 -15 3 -83 4 -83 -30 -6 c-41
-8 -89 -51 -102 -92 -15 -47 -5 -89 33 -132 25 -29 29 -38 19 -51 -20 -29 -33
-65 -28 -79 9 -23 38 -28 52 -8 18 24 18 35 -1 35 -15 0 -20 26 -9 53 4 12 13
12 60 -1 100 -28 214 13 269 96 98 149 42 364 -113 429 -41 17 -146 25 -187
14z"/>
<path d="M3070 2629 c-62 -26 -87 -73 -65 -124 7 -19 18 -35 22 -35 4 0 15 -4
22 -9 12 -8 11 -13 -9 -29 -21 -17 -22 -22 -11 -36 19 -22 51 -21 51 3 0 24
21 32 60 24 38 -7 43 -15 29 -46 -10 -22 -16 -24 -55 -19 -57 6 -125 -19 -159
-59 -29 -35 -35 -112 -10 -145 23 -30 18 -39 -34 -67 -60 -33 -101 -35 -108
-6 -7 25 -41 22 -57 -4 -9 -15 -7 -21 9 -33 33 -26 99 -12 165 33 l57 40 39
-20 c83 -44 219 -22 281 45 67 72 50 193 -36 255 -20 15 -40 30 -44 33 -4 4
10 45 31 91 l39 85 -51 13 c-69 19 -136 23 -166 10z m98 -15 c44 -12 63 -79
41 -143 -8 -24 -17 -31 -36 -31 -18 0 -24 4 -19 15 4 11 -2 15 -24 15 -67 0
-96 88 -44 129 28 22 44 25 82 15z m54 -231 c31 -36 48 -83 48 -135 0 -65 -15
-95 -60 -126 -47 -32 -137 -28 -175 8 l-25 24 33 35 c19 20 46 54 61 76 l28
40 -29 -35 c-71 -87 -92 -106 -103 -90 -32 49 9 142 70 155 34 7 73 -2 65 -16
-3 -5 1 -6 9 -3 10 4 20 -3 27 -19 14 -32 6 -55 -22 -65 -20 -8 -20 -9 -4 -25
22 -22 37 -21 69 4 37 29 34 63 -10 107 -31 31 -34 39 -25 59 13 28 23 29 43
6z"/>
<path d="M1320 2514 c6 -14 10 -88 10 -164 0 -76 -4 -150 -10 -164 l-10 -26
104 0 104 0 4 34 c4 32 3 33 -16 20 -11 -8 -44 -14 -73 -14 l-53 0 1 155 0
155 48 0 c26 0 52 -5 57 -10 7 -7 14 -3 22 15 l12 25 -105 0 -105 0 10 -26z"/>
<path d="M1580 2514 c6 -14 10 -88 10 -164 0 -76 -4 -150 -10 -164 l-10 -26
94 0 94 0 4 34 c4 32 3 33 -16 20 -11 -8 -40 -14 -64 -14 l-43 0 3 170 3 170
-37 0 c-36 0 -37 -1 -28 -26z"/>
<path d="M1783 2513 c8 -16 31 -101 52 -190 l39 -163 31 0 31 0 38 158 c21 86
45 172 52 190 l13 32 -32 0 c-30 0 -32 -2 -33 -38 -1 -56 -55 -277 -64 -261
-15 29 -62 252 -57 275 4 22 1 24 -40 24 l-44 0 14 -27z"/>
<path d="M2120 2508 c0 -33 -61 -282 -80 -325 -9 -21 -7 -23 25 -23 27 0 33 3
29 15 -4 8 -3 31 0 51 l7 35 62 -3 62 -3 3 -47 3 -48 79 0 c67 0 78 2 74 15
-4 8 -3 31 0 51 l7 35 62 -3 62 -3 3 -47 3 -48 40 0 c35 0 39 2 30 18 -5 9
-23 71 -41 137 -64 244 -56 225 -101 225 -37 0 -39 -1 -39 -32 0 -28 -19 -109
-71 -300 -5 -21 -16 -38 -24 -38 -15 0 -21 15 -70 200 -20 74 -38 143 -41 153
-4 12 -16 17 -45 17 -37 0 -39 -1 -39 -32z m69 -121 c12 -42 21 -82 21 -87 0
-6 -23 -10 -51 -10 -48 0 -51 1 -45 23 3 12 13 55 23 95 9 40 20 69 24 65 4
-5 16 -43 28 -86z m290 0 c12 -42 21 -82 21 -87 0 -6 -23 -10 -51 -10 -48 0
-51 1 -45 23 3 12 13 55 23 95 9 40 20 69 24 65 4 -5 16 -43 28 -86z"/>
<path d="M2640 2514 c6 -14 10 -88 10 -164 0 -76 -4 -150 -10 -164 -9 -25 -8
-26 32 -26 33 0 39 3 30 12 -14 14 -17 288 -3 288 20 0 63 -45 85 -88 25 -50
46 -133 46 -182 0 -23 5 -30 20 -30 19 0 20 7 20 178 0 125 4 182 12 190 9 9
2 12 -32 12 -34 0 -41 -3 -32 -12 7 -7 12 -42 12 -87 l-1 -76 -24 45 c-29 56
-79 104 -124 119 -48 16 -52 14 -41 -15z"/>
<path d="M3391 2503 c5 -21 9 -90 9 -153 0 -63 -4 -132 -9 -152 l-9 -38 37 0
36 0 -3 120 -4 120 61 0 61 0 0 -108 c0 -71 -4 -112 -12 -120 -9 -9 -2 -12 35
-12 46 0 46 0 37 26 -6 14 -10 88 -10 164 0 76 4 150 10 164 9 25 8 26 -29 26
l-38 0 5 -50 5 -50 -63 0 -63 0 5 50 5 50 -37 0 -38 0 9 -37z"/>
<path d="M3752 2524 c-61 -42 -83 -191 -43 -280 50 -111 156 -112 212 -2 31
60 25 189 -11 241 -13 20 -35 41 -48 46 -33 16 -84 13 -110 -5z m83 -30 c34
-35 49 -80 53 -166 4 -70 1 -93 -12 -113 -35 -54 -100 -13 -126 78 -15 55 -10
178 9 201 17 20 55 21 76 0z"/>
<path d="M4000 2514 c6 -14 10 -88 10 -164 0 -76 -4 -150 -10 -164 -9 -26 -9
-26 37 -26 37 0 44 3 35 12 -14 14 -17 218 -3 218 5 0 14 -6 20 -14 29 -34
117 -20 140 22 6 12 11 33 11 47 0 67 -49 95 -169 95 l-81 0 10 -26z m170 -24
c39 -39 14 -100 -41 -100 -40 0 -69 35 -69 82 l0 38 45 0 c32 0 51 -6 65 -20z"/>
<path d="M1406 2417 c-17 -12 -14 -15 28 -27 38 -10 49 -10 62 1 14 12 12 15
-17 25 -45 16 -52 16 -73 1z"/>
</g>
</svg>
